PathFileType	4	(X/Y/Z)	C:\Users\Biomechanik\SynologyDrive\AlexP\Athlete_03\Athlete_3_25_03_31\Walking_03\marker_experimental.trc
DataRate	CameraRate	NumFrames	NumMarkers	Units	OrigDataRate	OrigDataStartFrame	OrigNumFrames
200.000000	200.000000	4	53	mm	200.000000	153	246
Frame#	Time	GLAB			RFHD			LFHD			C7			T6			SPINMOL			SPINM2			SPINM3			T12			BELTOL			BELT2			BELT3			SACROL			SACR2			SACR3			LTHOL			LTH2			LTH3			LSHAOL			LSHA2			LSHA3			LHEE			LTOE			LM5			RTHOL			RTH2			RTH3			RSHAOL			RSHA2			RSHA3			RHEE			RTOE			RM5			STRN			XIPH			LACR			LUAOL			LUA2			LUA3			LLAOL			LLA2			LLA3			LWRR			LWRU			RACR			RUAOL			RUA2			RUA3			RLAOL			RLA2			RLA3			RWRR			RWRU			
		X1	Y1	Z1	X2	Y2	Z2	X3	Y3	Z3	X4	Y4	Z4	X5	Y5	Z5	X6	Y6	Z6	X7	Y7	Z7	X8	Y8	Z8	X9	Y9	Z9	X10	Y10	Z10	X11	Y11	Z11	X12	Y12	Z12	X13	Y13	Z13	X14	Y14	Z14	X15	Y15	Z15	X16	Y16	Z16	X17	Y17	Z17	X18	Y18	Z18	X19	Y19	Z19	X20	Y20	Z20	X21	Y21	Z21	X22	Y22	Z22	X23	Y23	Z23	X24	Y24	Z24	X25	Y25	Z25	X26	Y26	Z26	X27	Y27	Z27	X28	Y28	Z28	X29	Y29	Z29	X30	Y30	Z30	X31	Y31	Z31	X32	Y32	Z32	X33	Y33	Z33	X34	Y34	Z34	X35	Y35	Z35	X36	Y36	Z36	X37	Y37	Z37	X38	Y38	Z38	X39	Y39	Z39	X40	Y40	Z40	X41	Y41	Z41	X42	Y42	Z42	X43	Y43	Z43	X44	Y44	Z44	X45	Y45	Z45	X46	Y46	Z46	X47	Y47	Z47	X48	Y48	Z48	X49	Y49	Z49	X50	Y50	Z50	X51	Y51	Z51	X52	Y52	Z52	X53	Y53	Z53	

154	0.765	542.1908569335936	1590.49267578125	156.5393676757814	491.5454711914061	1622.150146484375	218.3963317871095	500.4175415039061	1607.864379882812	80.72547912597665	317.0866699218748	1430.301879882812	155.8153839111329	260.1856994628905	1261.642944335938	162.4010772705079	252.5278015136718	1220.7490234375	143.3364715576172	245.0271148681639	1215.821044921875	192.8974761962891	256.3146667480468	1157.532104492188	162.6996002197266	281.0216674804686	1091.954711914062	168.4992675781251	245.6654968261718	1055.642944335938	153.0390625000001	242.9176483154296	1054.457763671875	203.5723419189454	240.4433135986327	993.6503295898438	175.0198211669922	258.1885986328124	944.7180786132812	151.1803131103516	256.9658813476561	940.582275390625	202.2231445312501	244.7109374999999	882.8934326171875	172.073959350586	424.4387512207031	662.7080078125	2.933816432952959	388.3660583496093	596.0177001953125	25.71381568908699	436.7344055175781	604.6744384765625	17.21895408630379	472.6056823730469	315.9437866210938	23.94112014770516	429.0375061035156	250.4090881347657	36.57028961181648	478.9682312011719	254.7266082763672	32.88683319091805	421.5447998046875	63.81655883789065	129.106903076172	642.5390014648438	48.13616180419926	129.1650390625001	595.0191040039062	30.56773948669437	29.12913513183605	325.2028503417968	672.2193603515625	377.1033325195313	376.5917053222655	620.0768432617188	407.1149902343751	336.9190979003905	612.0977172851562	377.8034667968751	232.3270721435546	415.4653015136719	392.5653991699219	200.4181976318358	343.1822204589844	389.2686462402344	182.948272705078	385.3336181640625	369.3302001953126	31.50107765197748	293.503662109375	246.7341613769531	60.58998107910151	86.72480010986328	267.1117553710938	18.39890480041496	133.1117706298828	361.30029296875	486.7117309570311	1329.2607421875	168.0499267578126	504.238067626953	1185.7607421875	179.0662536621095	399.5863952636718	1381.968017578125	-12.91809082031243	382.7105407714843	1222.029418945312	-106.9822845458984	363.9647216796874	1160.695556640625	-122.7219467163085	410.6679077148437	1162.40771484375	-101.9214172363281	379.0553894042968	958.5275268554688	-144.6658325195312	335.4809570312499	895.178955078125	-125.4399108886718	381.5440063476562	896.8731079101562	-144.2690887451171	394.9131469726562	793.7906494140625	-147.5824890136718	441.7110900878906	791.973388671875	-83.2617874145507	395.2869262695311	1395.989135742188	329.9045715332032	384.0533142089843	1253.067993164062	434.7386169433594	411.5001220703124	1193.675170898438	445.1763305664063	362.2514343261718	1195.8173828125	460.2757873535157	433.1946411132811	979.5567016601562	495.1177062988282	503.8968505859373	948.2717895507812	516.5364379882814	464.4029541015623	925.26904296875	495.5264282226564	529.1206665039061	861.6050415039062	503.0256958007814	567.6298828124999	864.5463256835938	430.482147216797	
155	0.77	548.8276977539061	1591.360717773438	155.6930694580079	498.1898803710936	1623.139038085938	217.5114746093751	507.1343688964843	1608.778930664062	79.84006500244151	323.5929565429686	1431.3671875	154.8925170898438	266.7424926757811	1262.66943359375	161.3577270507813	259.1019287109374	1221.7822265625	142.2553405761719	251.5689086914061	1216.828735351562	191.8161010742188	262.9271240234374	1158.559326171875	161.5933074951172	287.6957092285155	1093.025268554688	167.4319610595704	252.3279876708984	1056.670532226562	151.6616973876954	249.4647674560546	1055.444946289062	202.1870574951172	247.0225982666015	994.6717529296875	173.5910034179688	264.7192077636718	945.892333984375	150.228012084961	263.6506958007811	941.6519165039062	201.2558288574219	251.2581024169921	884.0427856445312	171.0391845703126	428.7062072753906	663.4323120117188	2.277899980545123	391.7841491699218	597.1672973632812	24.99575042724616	440.2382202148437	605.329345703125	16.56766510009774	473.87548828125	316.0270385742188	23.72677612304696	429.9754638671875	250.7153930664063	36.33932495117195	479.9282836914062	254.7865447998047	32.65063858032235	421.5915222167969	63.96829986572268	129.1678924560548	642.5761108398438	48.07285690307621	129.1866912841798	594.9889526367188	30.56386184692386	29.09098434448253	335.0892944335936	672.2603149414062	376.6444702148438	387.2120361328124	621.11083984375	406.9306030273438	347.7522888183593	612.388671875	377.5424804687501	245.6545562744139	417.0596313476562	391.9975891113282	213.3439331054686	344.9613342285156	388.5609741210938	196.211700439453	387.2006225585938	368.5086975097657	44.15608978271478	295.9661560058594	244.9919738769531	74.22246551513668	89.18291473388672	266.3722839355469	31.77791595458977	136.0572204589844	360.1659240722656	493.256378173828	1330.372802734375	167.425033569336	510.7854003906249	1186.886596679688	178.4014434814454	406.5193481445312	1383.040771484375	-13.67180824279778	390.8237304687499	1223.120483398438	-107.8974609374999	372.4491271972656	1161.73486328125	-123.7651596069335	419.0004577636718	1163.618286132812	-102.6325607299804	389.0782470703124	959.4812622070312	-145.7195281982421	346.0129699707031	895.7069091796875	-126.7537155151367	392.2129516601562	897.846435546875	-145.1891632080077	406.6503906249999	794.8826904296875	-148.2141876220702	453.1660461425781	793.74658203125	-83.59661865234366	401.4891052246092	1397.046630859375	329.1614379882813	389.9298706054686	1254.090942382812	433.9709777832032	417.2803649902343	1194.672973632812	444.4414367675782	368.0292053222655	1196.884033203125	459.5388488769532	437.5304870605467	980.3085327148438	494.6352539062501	507.8338623046873	948.2940673828125	516.3143920898439	468.149444580078	925.6620483398438	495.260467529297	532.1302490234374	861.3505859375	503.1839904785157	570.5867309570311	863.4204711914062	430.5582275390626	
156	0.775	555.4407348632811	1592.223266601562	154.8975219726564	504.8110351562498	1624.118408203125	216.6782836914063	513.8290405273436	1609.695922851562	79.00626373291026	330.071075439453	1432.428833007812	154.0057830810547	273.2687988281249	1263.694091796875	160.3442077636719	265.6477355957031	1222.813720703125	141.2050933837891	258.0823364257811	1217.834106445312	190.7654571533204	269.5110473632811	1159.585083007812	160.5174865722657	294.3350524902343	1094.097290039062	166.3925170898438	258.9908142089843	1057.76123046875	150.3174743652344	256.0119018554686	1056.493286132812	200.8345947265626	253.5781860351562	995.7587890625	172.1936492919922	271.2079467773437	947.093505859375	149.340316772461	270.2964477539061	942.7699584960938	200.3569793701172	257.779571533203	885.225830078125	170.0956420898438	432.8866271972656	664.1689453125	1.633288741111835	395.1039428710937	598.3502197265625	24.29528045654304	443.6477050781249	606.0033569335938	15.91999530792244	475.0876159667969	316.1217651367188	23.49661064147958	430.8703918457031	251.0216217041016	36.0798873901368	480.8433227539062	254.8605041503907	32.40596771240243	421.6314392089844	64.13139343261722	129.2190246582032	642.606201171875	48.03379440307621	129.1870422363282	594.9575805664062	30.54563140869144	29.04987716674816	344.9186706542968	672.3882446289062	376.1789245605469	397.7779846191405	622.2416381835938	406.7161865234376	358.5408325195311	612.7781982421875	377.2551574707032	258.9716186523437	418.6514282226562	391.3249511718751	226.3202056884764	346.713134765625	387.7857666015626	209.4877624511718	389.011962890625	367.6059265136719	56.79703140258783	298.0478515625	243.3021545410156	88.53401184082027	91.43679809570312	265.5000915527344	45.81276702880852	138.5505523681641	358.9956359863281	499.7705993652343	1331.484375	166.8243560791016	517.2836303710936	1188.009521484375	177.7511749267579	413.3935546874999	1384.1171875	-14.39424037933342	398.9024353027343	1224.220825195312	-108.7734603881835	380.9203186035156	1162.780395507812	-124.7658691406249	427.3182373046874	1164.849975585938	-103.3085784912109	399.1379394531249	960.4707641601562	-146.7419128417968	356.5942993164062	896.2674560546875	-128.0467529296874	402.9248962402343	898.8646240234375	-146.0856170654296	418.4419250488281	796.03515625	-148.8326873779296	464.6651916503906	795.577880859375	-83.92648315429679	407.6568298339842	1398.091552734375	328.4508972167969	395.7506103515624	1255.10205078125	433.2392883300782	423.0038757324218	1195.660278320312	443.7519531250001	373.7487487792968	1197.9384765625	458.8266906738282	441.844024658203	981.08544921875	494.2087097167969	511.7509460449217	948.359375	516.1231689453126	471.8728942871092	926.0897216796875	495.0435485839845	535.1125488281249	861.1407470703125	503.3773498535157	573.4804687499999	862.3447265625	430.6673278808595	
157	0.78	562.0308227539061	1593.078979492188	154.1522827148439	511.4100952148436	1625.0859375	215.8968048095704	520.5020141601561	1610.614135742188	78.22404479980479	336.523223876953	1433.484619140625	153.1542358398438	279.7674865722655	1264.714111328125	159.3609161376954	272.1683349609374	1223.840576171875	140.1862030029297	264.5708923339843	1218.833862304688	189.7459716796876	276.0696716308593	1160.606079101562	159.472640991211	300.9424743652343	1095.16796875	165.3804321289063	265.6534118652343	1058.912475585938	149.0136718750001	262.5606079101561	1057.600708007812	199.5223388671876	260.1112365722655	996.9091796875	170.8358154296876	277.6568908691406	948.3154907226562	148.5192565917969	276.9053955078124	943.9324340820312	199.5285339355469	264.2783203124999	886.4369506835938	169.2479705810547	436.9736328124999	664.919677734375	1.001859426498493	398.3279113769531	599.566650390625	23.62416076660164	446.9624328613281	606.6964721679688	15.28422451019295	476.2365112304688	316.2337341308594	23.25622749328622	431.7162475585938	251.337142944336	35.81452941894539	481.7065734863281	254.9536590576172	32.15721893310555	421.6673583984375	64.3095626831055	129.2621307373048	642.6312255859375	48.01415634155278	129.1689758300782	594.92578125	30.51424789428714	29.00603103637706	354.6970825195311	672.5992431640625	375.7112731933594	408.3010864257811	623.4579467773438	406.4658203125001	369.2887268066405	613.2584838867188	376.9440002441407	272.2778320312499	420.2222290039062	390.5549621582032	239.3479766845702	348.416748046875	386.9579162597657	222.7761840820312	390.74560546875	366.6318664550782	69.43659210205072	299.7369995117188	241.672119140625	103.4860382080078	93.46694183349609	264.4983825683594	60.44804000854485	140.5765686035156	357.7846984863281	506.2557373046874	1332.595581054688	166.2456665039063	523.7319946289061	1189.127807617188	177.1139068603516	420.2072753906249	1385.197265625	-15.08694839477531	406.9400634765624	1225.330932617188	-109.6109619140624	389.3740539550781	1163.831665039062	-125.7272338867187	435.6156005859374	1166.103637695312	-103.9504928588866	409.2294311523437	961.4976196289062	-147.7305297851562	367.2207641601562	896.8630981445312	-129.3138122558593	413.6742858886718	899.9296875	-146.9560394287109	430.2817382812499	797.2511596679688	-149.4363555908202	476.2035827636718	797.4700317382812	-84.2519989013671	413.7946777343748	1399.125122070312	327.7706604003907	401.5175476074218	1256.103271484375	432.5426940917969	428.6699218749999	1196.637084960938	443.1066894531251	379.4084167480468	1198.982788085938	458.1365661621094	446.1330261230467	981.88818359375	493.8337402343751	515.6461181640623	948.468505859375	515.9606933593751	475.5715026855467	926.552490234375	494.8741760253907	538.0662231445311	860.975341796875	503.6036071777345	576.3139648437499	861.3204956054688	430.8105773925782	
